<?xml version="1.0" encoding="UTF-8"?>
<svg width="200" height="300" viewBox="0 0 200 300" xmlns="http://www.w3.org/2000/svg">
    <!-- Hair -->
    <path d="M100 50 
             C70 50, 40 80, 40 120 
             C40 160, 70 190, 100 190 
             C130 190, 160 160, 160 120 
             C160 80, 130 50, 100 50" 
          fill="#8D6E63"/>
    
    <!-- Face -->
    <circle cx="100" cy="120" r="60" fill="#FFE0B2"/>
    
    <!-- Eyes -->
    <circle cx="80" cy="110" r="10" fill="#333"/>
    <circle cx="120" cy="110" r="10" fill="#333"/>
    
    <!-- Smile -->
    <path d="M80 140 Q100 160 120 140" 
          stroke="#333" 
          stroke-width="3" 
          fill="none" 
          stroke-linecap="round"/>
    
    <!-- Body -->
    <path d="M100 180 
             L100 250 
             L70 280 
             L130 280 
             L100 250" 
          fill="#4CAF50"/>
    
    <!-- Arms -->
    <path d="M100 200 L60 220" stroke="#4CAF50" stroke-width="10" stroke-linecap="round"/>
    <path d="M100 200 L140 220" stroke="#4CAF50" stroke-width="10" stroke-linecap="round"/>
    
    <!-- Legs -->
    <path d="M100 280 L80 300" stroke="#4CAF50" stroke-width="10" stroke-linecap="round"/>
    <path d="M100 280 L120 300" stroke="#4CAF50" stroke-width="10" stroke-linecap="round"/>
</svg> 